<svg width="60" height="42" viewBox="0 0 60 42" fill="none" xmlns="http://www.w3.org/2000/svg">
<path d="M58.5681 6.55843C57.8802 3.97679 55.8535 1.94385 53.2796 1.2539C48.6148 -8.73881e-07 29.9091 -1.51992e-06 29.9091 -1.51992e-06C29.9091 -1.51992e-06 11.2034 -8.73881e-07 6.5385 1.2539C3.96486 1.94385 1.93782 3.97679 1.24997 6.55843C0 11.2375 0 21 0 21C0 21 0 30.7624 1.24997 35.4419C1.93782 38.0232 3.96486 40.0561 6.5385 40.7464C11.2034 42 29.9091 42 29.9091 42C29.9091 42 48.6148 42 53.2796 40.7464C55.8535 40.0561 57.8802 38.0232 58.5681 35.4419C59.8182 30.7624 59.8182 21 59.8182 21C59.8182 21 59.8182 11.2375 58.5681 6.55843Z" fill="#ED1D24"/>
<path d="M23.7915 29.8672L39.4258 21.004L23.7915 12.14V29.8672Z" fill="white"/>
</svg>
